<?xml version="1.0" encoding="utf-8" ?><svg xmlns="http://www.w3.org/2000/svg" xmlns:xlink="http://www.w3.org/1999/xlink" width="1024" height="1024" viewBox="0 0 1024 1024"><path fill="#FFF6E4" transform="scale(2 2)" d="M343.842 83.7011C341.905 83.8716 339.485 83.2635 338.592 81.3442C337.982 80.0326 337.867 56.7543 338.597 55.1587C339.352 53.5109 341.086 52.8122 342.677 52.2532C349.827 52.148 348.501 59.9446 348.492 64.9208L348.459 79.953C347.125 82.4256 346.362 82.8135 343.842 83.7011Z"/><path fill="#FFFDCD" transform="scale(2 2)" d="M280.086 80.729C281.039 77.6329 281.767 76.7452 284.551 75.2366C289.055 75.0659 298.311 87.0184 302.269 90.2936C306.805 94.0463 312.316 99.6553 304.168 103.339C299.151 103.434 281.339 83.8316 280.086 80.729Z"/><path fill="#FFF6E4" transform="scale(2 2)" d="M385.468 102.488C382.119 102.62 378.49 99.9211 379.643 96.2054C380.55 93.28 395.327 78.5719 399.592 76.4935C417.293 78.0721 386.231 102.2 385.468 102.488Z"/><path fill="#FFF6E4" transform="scale(2 2)" d="M345.64 176.595C323.706 178.166 304.666 161.628 303.152 139.691C301.638 117.754 318.226 98.7567 340.167 97.3001C362.028 95.8489 380.939 112.362 382.448 134.219C383.956 156.075 367.492 175.03 345.64 176.595ZM339.533 107.382C323.161 109.213 311.368 123.962 313.184 140.336C315 156.71 329.737 168.517 346.113 166.717C362.51 164.914 374.337 150.152 372.519 133.756C370.7 117.36 355.927 105.548 339.533 107.382Z"/><path fill="#FFF6E4" transform="scale(2 2)" d="M424.658 142.769C420.731 142.873 399.637 140.953 397.019 139.642C393.423 137.841 393.739 132.103 399.592 130.561C402.288 130.502 423.633 132.71 425.701 133.472C430.802 135.35 429.403 141.169 424.658 142.769Z"/><path fill="#FFFDCD" transform="scale(2 2)" d="M266.562 141.771C257.483 143.879 256.669 133.31 262.318 132.526C268.462 131.674 277.112 131.301 283.47 131.013C294.859 129.609 293.219 139.818 286.572 140.712C280.965 141.466 272.227 141.959 266.562 141.771Z"/><path fill="#FFFDCD" transform="scale(2 2)" d="M120.139 207.183C119.248 210.536 118.65 222.483 117.878 223.324C114.826 226.649 109.249 225.156 109.127 219.942C108.479 192.232 127.671 171.378 155.131 168.6C161.711 167.798 168.736 169.143 174.953 171.311C181.306 173.527 182.5 178.985 175.682 181.715C173.307 181.105 170.644 179.853 168.279 179.165C147.242 173.043 126.311 186.645 120.139 207.183Z"/><path fill="#FFFDCD" transform="scale(2 2)" d="M287.049 198.784C282.646 199.267 279.327 194.522 282.164 190.841C286.393 186.107 297.619 174.575 301.831 172.264C320.922 171.347 289.485 197.757 287.049 198.784Z"/><path fill="#FFF6E4" transform="scale(2 2)" d="M400.186 198.784C396.121 198.351 380.051 180.746 379.364 178.676C378.275 175.39 381.196 173.167 383.972 172.264C388.115 172.219 401.583 187.745 404.103 191.086C406.252 193.934 402.868 197.437 400.186 198.784Z"/><path fill="#FFF6E4" transform="scale(2 2)" d="M345.312 223.222C340.775 224.24 338.478 222.009 338.368 217.497C338.193 210.299 335.746 193.196 341.56 189.278C346.172 188.901 348.124 190.537 348.286 195.26C348.518 202.051 350.887 219.653 345.312 223.222Z"/><defs><linearGradient id="gradient_0" gradientUnits="userSpaceOnUse" x1="73.321037" y1="334.23288" x2="158.72464" y2="354.32156"><stop offset="0" stop-color="#FAFFCD"/><stop offset="1" stop-color="#FFFADD"/></linearGradient></defs><path fill="url(#gradient_0)" transform="scale(2 2)" d="M257.838 229.236L257.396 229.283C246.222 216.708 240.059 196.597 220.272 199.429C213.047 200.463 208.543 205.379 204.664 210.908C199.215 218.675 169.777 255.735 168.429 262.559C170.891 266.859 172.054 264.975 175.724 266.598C179.326 268.191 182.329 280.159 188.763 276.207C190.594 275.082 193.582 270.592 195.699 271.044C198.688 271.682 210.475 288.636 214.44 291.39C219.048 294.592 224.288 286.189 227.055 283.33L243.056 266.708C244.043 265.698 247.464 261.522 248.575 261.489L248.686 261.923C240.893 269.171 233.95 277.595 226.272 284.931C220.932 290.033 218.491 296.494 212.029 290C206.482 283.699 201.317 277.044 195.409 271.057C182.898 282.334 185.911 277.938 174.763 267.406C171.824 271.821 168.384 276.099 165.281 280.443L130.47 328.235C108.887 358.238 87.624 389.497 65.6172 419.074C72.5637 419.88 80.78 419.068 87.88 419.074L104.118 419.089C127.715 419.238 134.765 413.623 156.623 405.56C173.599 399.298 191.75 394.245 209.621 391.487C209.255 391.857 208.92 392.177 208.38 392.275C188.742 395.835 153.199 404.994 135.415 415.444C133.716 416.688 132.233 419.418 129.839 419.066C127.54 418.729 123.937 420.033 121.333 420.42L121.027 420.987C120.65 421.051 114.177 420.176 110.025 420.879L109.838 421.151L110.089 421.681C108.64 423.761 107.418 421.176 105.558 425.515C106.255 426.518 106.79 425.789 107.41 426.757L107.173 427.053C106.565 427.057 105.964 427.06 105.355 427.079L105.184 427.27C105.779 427.606 112.412 428.194 113.251 428.208L113.997 428.765C111.58 429.558 104.67 428.805 101.623 429.236C99.889 429.51 56.8507 429.36 56.1819 429.184C44.4236 426.083 62.8784 406.39 65.9932 402.009L170.772 256.04L196.762 220.886C200.336 216.089 203.798 210.956 207.483 206.31C214.77 197.124 229.771 195.477 238.333 203.855C241.29 206.748 255.859 225.089 257.838 229.236Z"/><path fill="#FFF6E4" transform="scale(2 2)" d="M248.686 261.923L248.575 261.489C247.464 261.522 244.043 265.698 243.056 266.708L227.055 283.33C224.288 286.189 219.048 294.592 214.44 291.39C210.475 288.636 198.688 271.682 195.699 271.044C193.582 270.592 190.594 275.082 188.763 276.207C182.329 280.159 179.326 268.191 175.724 266.598C172.054 264.975 170.891 266.859 168.429 262.559C169.777 255.735 199.215 218.675 204.664 210.908C208.543 205.379 213.047 200.463 220.272 199.429C240.059 196.597 246.222 216.708 257.396 229.283L257.838 229.236C260.265 231.808 262.889 235.667 265.008 238.54C278.69 257.096 292.443 277.264 306.686 295.182C314.985 283.265 327.875 259.953 345.155 271.893C349.611 275.463 355.105 284.09 358.811 289.111L437.641 393.824C444.537 402.857 451.394 411.778 458.618 420.566C466.305 429.918 449.481 429.282 445.265 429.258L399.559 429.245C390.662 429.244 381.864 429.536 373.072 427.825C356.462 424.594 341.004 416.218 324.982 411.005C291.451 400.096 255.647 395.543 220.537 399.423C217.532 399.755 213.92 400.496 211.071 400.69L210.822 400.213C196.908 402.669 183.72 406.005 170.258 410.246C168.842 410.692 161.707 412.683 160.713 412.744L160.658 413.368C153.409 415.256 147.402 419.926 139.706 419.765L139.355 420.117C136.859 422.574 132.936 420.786 129.614 423.933C125.749 427.596 118.091 427.249 113.997 428.765L113.251 428.208C112.412 428.194 105.779 427.606 105.184 427.27L105.355 427.079C105.964 427.06 106.565 427.057 107.173 427.053L107.41 426.757C106.79 425.789 106.255 426.518 105.558 425.515C107.418 421.176 108.64 423.761 110.089 421.681L109.838 421.151L110.025 420.879C114.177 420.176 120.65 421.051 121.027 420.987L121.333 420.42C123.937 420.033 127.54 418.729 129.839 419.066C132.233 419.418 133.716 416.688 135.415 415.444C153.199 404.994 188.742 395.835 208.38 392.275C208.92 392.177 209.255 391.857 209.621 391.487C246.743 384.731 289.364 388.718 325.101 400.561C341.356 405.948 358.52 414.083 375.173 418.061C382.526 419.817 395.896 419.082 403.838 419.079L444.072 419.074L353.639 298.914C350.268 294.311 337.965 272.399 330.711 280.189C324.034 287.359 318.923 296.148 312.382 303.501L355.511 364.345C358.156 368.117 364.515 374.598 359.575 378.146C352.69 383.09 344.695 366.31 340.875 360.869L301.826 305.459C289.714 288.483 277.087 271.375 264.721 254.557L265.037 254.193C261.532 248.368 256.238 242.38 252.152 236.87L239.672 220.239C237.281 217.068 231.88 208.803 228 208.015C222.567 206.911 216.729 208.283 213.782 213.142C205.454 224.317 197.259 235.457 188.97 246.651C186.194 250.384 181.809 253.854 179.79 258.103C180.546 261.716 183.723 267.049 187.786 266.533C192.938 261.904 191.094 260.286 198.618 260.372C224.181 284.301 207.757 289.213 235.299 262.298L235.011 261.923C237.158 259.332 245.011 250.406 247.973 249.641C252.446 250.21 267.815 265.109 270.969 268.493C273.702 271.424 270.24 276.817 266.564 276.141C260.149 272.818 254.789 266.087 248.686 261.923Z"/><path fill="#FFFDCD" transform="scale(2 2)" d="M264.721 254.557C262.304 251.694 259.271 247.361 256.938 244.254L239.783 221.367C229.05 207.31 223.615 200.914 210.797 218.165L202.923 228.787C196.037 238.073 186.736 249.897 180.637 259.268C182.882 261.114 185.356 263.992 187.335 266.195C192.97 260.498 195.563 255.383 202.323 263.383C207.133 269.075 212.023 274.832 216.836 280.531C219.892 277.524 233.073 263.166 235.011 261.923L235.299 262.298C207.757 289.213 224.181 284.301 198.618 260.372C191.094 260.286 192.938 261.904 187.786 266.533C183.723 267.049 180.546 261.716 179.79 258.103C181.809 253.854 186.194 250.384 188.97 246.651C197.259 235.457 205.454 224.317 213.782 213.142C216.729 208.283 222.567 206.911 228 208.015C231.88 208.803 237.281 217.068 239.672 220.239L252.152 236.87C256.238 242.38 261.532 248.368 265.037 254.193L264.721 254.557Z"/><path fill="#FFFDCD" transform="scale(2 2)" d="M107.872 315.028C93.5775 315.082 113.504 292.655 116.495 292.061C131.262 292.9 110.104 314.398 107.872 315.028Z"/><path fill="#FFFDCD" transform="scale(2 2)" d="M62.1623 380.781C58.2277 381.653 54.2094 378.23 56.0023 374.565C61.1312 365.282 93.0306 321.855 94.8734 321.067C98.0857 320.968 103.694 323.024 101.669 326.549C97.6431 333.556 91.0854 341.978 86.5 348.379L71.8906 368.795C69.8501 371.601 64.6667 379.459 62.1623 380.781Z"/><path fill="#FFFDCD" transform="scale(2 2)" d="M211.071 400.69C191.784 404.262 175.563 408.836 157.339 415.837C140.834 422.177 119.886 432.015 101.623 429.236C104.67 428.805 111.58 429.558 113.997 428.765C118.091 427.249 125.749 427.596 129.614 423.933C132.936 420.786 136.859 422.574 139.355 420.117L139.706 419.765C147.402 419.926 153.409 415.256 160.658 413.368L160.713 412.744C161.707 412.683 168.842 410.692 170.258 410.246C183.72 406.005 196.908 402.669 210.822 400.213L211.071 400.69Z"/></svg>