<?xml version="1.0" encoding="utf-8" ?><svg xmlns="http://www.w3.org/2000/svg" xmlns:xlink="http://www.w3.org/1999/xlink" width="1024" height="1024" viewBox="0 0 1024 1024"><path fill="#1C001F" transform="scale(2 2)" d="M352.431 104.989C345.569 105.11 346.42 99.9822 346.369 94.5128C346.312 88.3784 343.745 72.8334 350.243 71.0653C360.579 70.8546 356.668 93.5229 356.789 101.667C355.543 103.438 354.476 104.323 352.431 104.989Z"/><path fill="#1C001F" transform="scale(2 2)" d="M394.313 124.487C390.721 124.648 386.235 122.161 388.417 117.933C389.774 115.303 407.184 97.174 411.304 95.7764C415.053 94.9967 418.344 97.6987 417.064 101.556C416.331 103.765 396.948 123.205 394.313 124.487Z"/><path fill="#1C001F" transform="scale(2 2)" d="M310.63 124.487C306.612 124.041 288.713 105.435 287.075 102.112C285.516 98.9484 288.691 96.8009 291.215 95.7764C295.246 95.3533 313.38 115.262 314.719 118.131C315.963 120.796 312.708 123.504 310.63 124.487Z"/><path fill="#1C001F" transform="scale(2 2)" d="M354.892 201.524C331.913 203.449 311.721 186.389 309.782 163.411C307.843 140.433 324.891 120.231 347.868 118.279C370.864 116.325 391.087 133.39 393.027 156.387C394.967 179.384 377.89 199.596 354.892 201.524ZM349.106 128.161C331.498 129.467 318.287 144.807 319.605 162.414C320.923 180.021 336.271 193.222 353.877 191.892C371.467 190.564 384.653 175.233 383.336 157.643C382.019 140.052 366.698 126.856 349.106 128.161Z"/><path fill="#1C001F" transform="scale(2 2)" d="M272.773 165.246C268.774 164.674 261.614 165.767 261.428 160.025C261.234 154.078 268.171 155.206 272.202 155.213L285.642 155.249C288.807 155.137 291.139 155.089 294.305 155.249C295.523 155.986 295.765 156.196 296.788 157.194L297.657 159.848C294.875 168.064 280.787 165.273 272.773 165.246Z"/><path fill="#1C001F" transform="scale(2 2)" d="M437.336 165.246L419.809 165.258C416.583 165.275 413.252 165.382 410.044 165.276C403.746 165.067 402.602 156.644 409.582 155.249C414.165 155.158 436.204 154.61 439.079 155.939C444.152 158.283 442.24 164.177 437.336 165.246Z"/><path fill="#1C001F" transform="scale(2 2)" d="M412.157 223.802C408.017 223.782 393.408 207.515 390.121 204.1C386.894 200.749 387.782 196.277 392.622 195.31C396.819 194.923 410.707 211.091 414.136 214.532C417.943 218.352 417.409 221.972 412.157 223.802Z"/><path fill="#1C001F" transform="scale(2 2)" d="M291.215 225.314C287.503 224.878 284.257 221.387 286.652 218.098C289.261 214.515 307.164 196.129 310.63 195.31C314.074 196.094 314.731 197.202 315.866 200.372L315.752 200.669C314.549 203.867 296.128 223.958 291.215 225.314Z"/><path fill="#1C001F" transform="scale(2 2)" d="M352.431 250.488C350.603 250.345 348.482 249.526 347.626 247.802C346.602 245.737 346.615 216.523 347.441 214.966C348.284 213.378 349.864 212.78 351.478 212.246C353.846 212.496 355.492 213.616 356.789 215.594C356.974 218.516 356.807 223.028 356.805 226.091L356.789 247.122C355.472 249.219 354.74 249.694 352.431 250.488Z"/><path fill="#10011B" transform="scale(2 2)" d="M99.9608 358.024C102.544 354.346 105.294 350.939 107.947 347.339L131.872 315.388C139.405 305.395 151.77 281.631 167.571 293.272C171.612 296.25 173.934 300.648 177.26 304.165C187.261 289.309 198.534 275.191 208.992 260.644C216.245 250.555 232.61 220.412 248.803 233.583C254.318 238.069 259.506 246.187 263.873 251.903L280.926 274.16C289.612 285.584 298.741 297.124 307.224 308.596C310.708 302.852 324.108 283.67 329.223 279.03C342.716 266.787 354.179 279.736 361.59 289.904L461.108 423.528C461.84 424.524 462.263 426.043 462.538 427.256C460.996 432.093 456.172 433.508 453.118 429.435L355.37 297.778C342.28 280.149 341.254 278.685 327.52 296.76L312.82 316.366C317.262 321.713 322.077 328.405 326.341 334.018L387.055 414.99C388.309 416.648 390.154 418.908 391.231 420.62C385.471 422.128 387.147 426.495 388.596 430.317L347.521 430.305C340.875 430.308 333.101 430.544 326.587 430.317C327.322 429.94 331.711 430.237 333.548 429.885C327.313 428.784 320.713 430.396 314.471 430.325C299.674 429.783 285.654 429.651 270.775 429.736C253.824 429.207 236.894 431.278 219.13 429.703C214.973 429.335 209.082 429.684 204.877 429.866C176.827 431.078 148.601 429.089 121.039 430.013C113.043 430.556 105.208 429.893 97.2506 429.961C94.1948 429.988 81.9327 431.791 80.5726 428.241C83.0244 428.467 83.1584 429.817 87.5431 429.691C89.6121 429.632 97.6697 429.751 98.8508 428.495L98.7332 428.115L98.1692 428.068L98.0302 427.76C99.2962 426.228 100.527 429.654 101.201 423.463L101.295 423.837L101.448 423.573C99.7614 423.081 100.582 422.678 101.835 422.482L101.911 422.116C100.78 420.95 88.5296 421.567 85.8784 420.989C94.1308 420.134 102.899 421.876 109.316 421.257C119.92 420.232 130.266 421.038 140.825 421.106L196.143 421.084C203.797 421.091 210.825 420.22 218.607 421.056C227.254 421.985 242.684 420.963 251.828 420.624C271.615 419.84 292.83 420.808 312.812 420.594C314.982 420.456 318.119 421.42 320.185 421.27C325.062 420.915 328.673 420.584 333.589 420.88C328.428 420.375 317.312 420.567 311.989 420.839L311.568 420.62C317.481 420.287 327.658 420.619 333.816 420.618L378.998 420.62L319.762 341.437C306.169 323.277 291.96 305.117 278.725 286.724C256.847 299.502 230.153 287.257 214.014 311.896C212.369 314.409 210.795 318.438 208.087 319.795C205.847 320.918 202.554 319.695 201.745 317.242C200.592 313.882 203.729 310.148 205.353 307.434C212.523 295.453 225.772 287.454 239.414 285.26C254.174 282.909 257.119 284.359 272.773 279.04C266.778 272.302 260.975 263.385 255.189 256.214C250.683 250.954 241.802 232.921 233.412 243.502C229.315 248.668 225.689 254.025 221.845 259.357L203.013 285.07C196.907 293.491 188.374 303.157 183.472 312.237L207.013 344.905C219.104 361.941 226.952 373.45 251.13 375.904C260.625 376.868 257.866 386.36 251.993 385.972C235.705 384.897 217.503 376.239 207.306 363.13C194.827 344.395 177.864 318.398 162.84 301.567C156.301 294.242 146.702 311.891 143.38 316.192C129.849 333.707 117.058 351.748 103.808 369.467C103.084 370.435 102.269 371.76 101.416 372.573C101.129 372.436 101.009 372.317 100.774 372.633L67.2095 417.443C64.6581 420.837 57.106 434.545 51.9193 430.914C51.3398 430.508 50.602 429.399 50.51 428.682L50.867 428.577C50.8027 429.135 50.7797 428.879 50.8936 429.347L51.1624 429.351L51.3301 428.872C57.1467 434.239 65.7191 419.606 64.3543 416.447C62.9483 415.654 63.0348 415.664 62.1603 414.293C60.108 413.38 58.837 416.865 56.8941 417.464C57.088 416.175 67.0819 403.361 68.8009 401.059L89.8499 372.741C92.3159 369.47 98.5378 361.982 100.25 358.548L99.9608 358.024ZM76.7941 394.6C75.6843 395.094 74.1249 396.837 74.0049 397.988L74.3117 398.209C76.215 397.656 75.3267 398.746 77.0013 399.578L77.7207 399.594C78.5368 398.598 80.2245 396.67 80.7397 395.607L80.5219 395.283C79.2589 395.177 78.6388 395.278 77.3945 395.408L77.2402 394.76L76.7941 394.6Z"/><path fill="#10011B" transform="scale(2 2)" d="M187.982 381.82C173.918 369.52 165.438 357.851 142.646 360.703C135.981 361.538 129.878 351.04 144.654 350.738C161.825 349.532 185.178 359.772 195.69 376.45C197.541 379.387 193.06 384.914 187.982 381.82Z"/><path fill="#05001B" transform="scale(2 2)" d="M99.9608 358.024L100.25 358.548C98.5378 361.982 92.3159 369.47 89.8499 372.741L68.8009 401.059C67.0819 403.361 57.088 416.175 56.8941 417.464C58.837 416.865 60.108 413.38 62.1603 414.293C63.0348 415.664 62.9483 415.654 64.3543 416.447C65.7191 419.606 57.1467 434.239 51.3301 428.872L51.1624 429.351L50.8936 429.347C50.7797 428.879 50.8027 429.135 50.867 428.577L50.51 428.682C50.602 429.399 51.3398 430.508 51.9193 430.914C57.106 434.545 64.6581 420.837 67.2095 417.443L100.774 372.633C101.009 372.317 101.129 372.436 101.416 372.573C100.141 374.746 97.0592 378.552 95.3952 380.797L66.6158 419.169C63.6171 423.182 53.3114 440.689 49.1693 427.256C49.4447 426.233 49.7132 425.423 50.3486 424.563L99.9608 358.024Z"/><path fill="#10011B" transform="scale(2 2)" d="M148.728 399.594C146.261 400.635 142.692 403.541 140.62 403.725C129.132 404.197 137.549 387.234 157.89 386.25C162.49 385.762 174.902 385.391 173.732 392.751C172.324 401.613 159.309 391.361 148.728 399.594Z"/><path fill="#05001B" transform="scale(2 2)" d="M77.7207 399.594L77.0013 399.578C75.3267 398.746 76.215 397.656 74.3117 398.209L74.0049 397.988C74.1249 396.837 75.6843 395.094 76.7941 394.6L77.2402 394.76L77.3945 395.408C78.6388 395.278 79.2589 395.177 80.5219 395.283L80.7397 395.607C80.2245 396.67 78.5368 398.598 77.7207 399.594Z"/><path fill="#05001B" transform="scale(2 2)" d="M326.587 430.317C323.417 430.474 318.916 430.325 315.669 430.322L92.2488 430.27C89.7416 430.267 82.9843 431.119 81.1052 429.576C77.4 426.533 79.0199 420.647 84.2844 420.62L311.568 420.62L311.989 420.839C317.312 420.567 328.428 420.375 333.589 420.88C328.673 420.584 325.062 420.915 320.185 421.27C318.119 421.42 314.982 420.456 312.812 420.594C292.83 420.808 271.615 419.84 251.828 420.624C242.684 420.963 227.254 421.985 218.607 421.056C210.825 420.22 203.797 421.091 196.143 421.084L140.825 421.106C130.266 421.038 119.92 420.232 109.316 421.257C102.899 421.876 94.1308 420.134 85.8784 420.989C88.5296 421.567 100.78 420.95 101.911 422.116L101.835 422.482C100.582 422.678 99.7614 423.081 101.448 423.573L101.295 423.837L101.201 423.463C100.527 429.654 99.2962 426.228 98.0302 427.76L98.1692 428.068L98.7332 428.115L98.8508 428.495C97.6697 429.751 89.6121 429.632 87.5431 429.691C83.1584 429.817 83.0244 428.467 80.5726 428.241C81.9327 431.791 94.1948 429.988 97.2506 429.961C105.208 429.893 113.043 430.556 121.039 430.013C148.601 429.089 176.827 431.078 204.877 429.866C209.082 429.684 214.973 429.335 219.13 429.703C236.894 431.278 253.824 429.207 270.775 429.736C285.654 429.651 299.674 429.783 314.471 430.325C320.713 430.396 327.313 428.784 333.548 429.885C331.711 430.237 327.322 429.94 326.587 430.317Z"/><path fill="#1C001F" transform="scale(2 2)" d="M388.596 430.317C387.147 426.495 385.471 422.128 391.231 420.62C394.534 421.831 420.832 419.584 426.388 420.756C432.842 422.117 437.36 425.013 431.058 430.793C427.557 431.461 421.48 430.822 417.615 430.801L400.06 430.796C397.124 430.792 391.322 430.888 388.596 430.317Z"/></svg>